<svg width="924" height="752" viewBox="0 0 924 752" fill="none" xmlns="http://www.w3.org/2000/svg">
<path d="M368 448L436 404V200H288V136H436V36H496V136H644V200H496V404L608 484V724H552V236H712M368 448V236H212V312M368 448V724H324V484L368 448ZM32 624H136V508H212V312M32 624V428H116V312H212M32 624V724H192V572H288V724M644 724V572H732V724H888V624M712 236V312H812V428H888V624M712 236V508H788V624H888M412 724H520V484L464 448L412 484V724Z" stroke="white" stroke-width="11"/>
<path d="M60 468V592H108V468H60Z" fill="#B4D2FF"/>
<path d="M60 656V696H148V656H60Z" fill="#B4D2FF"/>
<path d="M784 656H864V696H784V656Z" fill="#B4D2FF"/>
<path d="M812 468V592H864V468H812Z" fill="#B4D2FF"/>
<path d="M736 340V416H784V340H736Z" fill="#B4D2FF"/>
<path d="M244 272V492H292V448L340 416V272H244Z" fill="#B4D2FF"/>
<path d="M141 340V416H187V340H141Z" fill="#B4D2FF"/>
<path d="M60 468V592H108V468H60Z" stroke="white" stroke-width="7"/>
<path d="M60 656V696H148V656H60Z" stroke="white" stroke-width="7"/>
<path d="M784 656H864V696H784V656Z" stroke="white" stroke-width="7"/>
<path d="M812 468V592H864V468H812Z" stroke="white" stroke-width="7"/>
<path d="M736 340V416H784V340H736Z" stroke="white" stroke-width="7"/>
<path d="M244 272V492H292V448L340 416V272H244Z" stroke="white" stroke-width="7"/>
<path d="M141 340V416H187V340H141Z" stroke="white" stroke-width="7"/>
<path d="M466.5 484L439 511.257V696H494V511.257L466.5 484Z" fill="#B4D2FF" stroke="white" stroke-width="7"/>
<path d="M479.4 397V182.406H615L616 157.678H479.4V49H452.9V158.594H317V182.322H452.9V397H479.4Z" fill="#B4D2FF" stroke="white" stroke-width="7"/>
<path d="M684 492V272H588V416L636 448V492H684Z" fill="#B4D2FF" stroke="white" stroke-width="7"/>
</svg>
